<?xml version="1.0" standalone="no"?>
<!DOCTYPE svg PUBLIC "-//W3C//DTD SVG 20010904//EN"
 "http://www.w3.org/TR/2001/REC-SVG-20010904/DTD/svg10.dtd">
<svg version="1.0" xmlns="http://www.w3.org/2000/svg"
 width="1000.000000pt" height="1000.000000pt" viewBox="0 0 1000.000000 1000.000000"
 preserveAspectRatio="xMidYMid meet">

<g transform="translate(0.000000,1000.000000) scale(0.100000,-0.100000)"
fill="#000000" stroke="none">
<path d="M5508 8983 c7 -3 16 -2 19 1 4 3 -2 6 -13 5 -11 0 -14 -3 -6 -6z"/>
<path d="M6220 8780 c8 -5 20 -10 25 -10 6 0 3 5 -5 10 -8 5 -19 10 -25 10 -5
0 -3 -5 5 -10z"/>
<path d="M3790 8741 c-338 -112 -676 -287 -957 -495 -370 -275 -722 -654 -947
-1018 -50 -82 -37 -68 72 77 374 501 872 916 1461 1221 58 30 127 70 153 88
25 18 113 62 195 96 202 86 207 92 23 31z"/>
<path d="M6398 8700 c132 -64 289 -156 281 -165 -2 -2 -28 1 -58 7 -29 5 -55
7 -58 4 -3 -2 78 -59 179 -126 171 -114 232 -159 225 -166 -7 -7 -113 39 -245
105 -239 119 -427 195 -650 261 -329 97 -664 128 -637 58 10 -25 74 -54 230
-103 532 -166 634 -204 900 -335 162 -80 465 -264 453 -275 -3 -3 -90 34 -194
81 -587 268 -1013 393 -1382 409 l-117 5 118 -40 c65 -22 189 -56 275 -76 214
-49 406 -115 668 -227 341 -146 410 -186 545 -313 51 -47 106 -87 144 -106 47
-22 85 -53 151 -121 49 -51 121 -120 159 -155 39 -35 69 -67 68 -72 -1 -5 33
-42 76 -82 61 -58 77 -78 70 -90 -7 -12 11 -44 71 -127 376 -526 578 -1092
635 -1781 7 -95 19 -171 29 -196 16 -39 16 -48 -3 -168 -12 -69 -32 -177 -45
-239 -13 -61 -27 -150 -31 -197 -5 -57 -15 -100 -30 -130 -13 -25 -37 -95 -55
-155 -75 -259 -238 -615 -375 -821 -100 -149 -159 -224 -306 -390 -124 -138
-198 -210 -293 -279 -45 -34 -63 -52 -56 -59 7 -7 17 -6 32 3 17 11 16 6 -8
-28 -23 -32 -45 -47 -104 -72 -99 -41 -172 -78 -299 -152 -167 -96 -384 -193
-590 -263 -10 -3 -11 -8 -2 -18 13 -15 -31 -25 -199 -47 -47 -6 -141 -19 -210
-30 -69 -10 -175 -22 -236 -25 l-111 -7 5 194 c2 110 0 226 -6 268 -10 70 -8
88 29 273 44 223 60 374 64 628 2 142 6 188 23 242 37 123 64 159 255 339 225
213 244 223 464 254 62 9 139 24 170 34 96 30 128 34 144 15 12 -15 14 -15 19
7 4 17 14 25 33 27 24 3 27 0 27 -25 0 -16 16 -55 35 -87 19 -32 35 -63 35
-69 0 -6 3 -7 6 -4 4 3 15 2 25 -4 17 -9 19 -6 19 31 0 25 5 40 13 40 20 0 31
-12 57 -64 l25 -50 11 55 c11 53 11 54 22 26 7 -16 12 -48 12 -73 0 -49 8 -54
35 -24 10 12 25 18 32 16 9 -4 13 4 13 24 0 17 5 30 11 30 5 0 7 5 4 10 -4 6
6 10 23 10 24 0 32 -6 40 -30 6 -16 7 -32 2 -35 -8 -5 17 -35 56 -65 17 -14
18 -14 6 1 -7 9 -14 43 -16 76 -4 57 -3 59 21 61 14 1 50 -4 79 -12 l54 -14
-20 29 c-12 15 -35 40 -53 53 l-32 26 35 1 c29 2 26 3 -15 8 l-50 7 58 28 c64
32 74 41 52 50 -12 4 -10 10 10 32 21 23 24 33 19 68 -9 61 -61 92 -57 34 1
-22 -2 -24 -24 -20 -25 5 -25 6 -8 18 17 13 14 14 -29 14 l-48 0 6 34 c6 30 4
35 -15 38 -16 2 -4 12 48 41 45 25 58 36 38 32 -16 -4 -54 -8 -83 -10 -44 -3
-53 -1 -48 11 3 9 1 12 -4 9 -6 -3 -10 4 -10 16 0 12 -10 38 -22 58 l-23 36
-3 -39 c-2 -22 4 -59 13 -82 15 -40 15 -45 -2 -70 -18 -28 -93 -87 -100 -80
-3 2 5 23 15 45 14 28 16 41 8 41 -7 0 -22 24 -35 53 l-22 52 -19 -35 c-12
-21 -19 -56 -20 -87 0 -47 -2 -53 -21 -53 -12 0 -18 -4 -13 -11 7 -13 -13 -29
-37 -29 -8 0 -23 15 -31 34 -18 36 -75 106 -88 106 -4 0 0 -30 8 -66 14 -64
14 -67 -7 -87 -16 -16 -21 -18 -21 -7 0 8 -5 32 -11 53 -8 30 -13 36 -24 27
-10 -8 -14 -8 -18 2 -3 7 -3 -3 0 -22 l6 -35 -22 19 c-11 11 -24 16 -28 13 -9
-10 25 -92 47 -112 11 -10 20 -23 20 -29 0 -7 -82 -27 -202 -51 -275 -53 -348
-64 -348 -53 0 5 42 76 93 158 88 143 93 150 119 144 l28 -6 -17 30 c-16 28
-16 30 13 65 32 41 45 47 37 17 -3 -13 0 -20 8 -20 10 -1 8 -4 -3 -11 -10 -5
-18 -21 -18 -35 0 -37 51 -64 120 -64 l55 1 -27 24 c-16 13 -28 27 -28 30 0 3
12 5 28 6 25 0 24 2 -13 18 -36 16 -38 18 -20 29 17 10 14 11 -23 12 -40 0
-42 1 -31 21 6 12 19 23 29 26 11 3 16 11 13 23 -4 14 3 20 28 25 30 7 32 8
14 21 -21 15 -16 18 50 29 21 4 53 14 70 22 30 16 30 16 7 26 -26 12 -27 16
-7 53 8 15 13 29 11 31 -1 2 -31 -8 -65 -22 -34 -14 -66 -23 -72 -19 -5 3 -18
0 -27 -7 -9 -7 -5 0 9 16 15 17 39 50 54 74 27 43 27 43 42 21 14 -20 22 -22
72 -18 31 3 70 11 86 17 l30 13 -45 23 c-25 13 -63 24 -84 25 -39 0 -39 0 -20
21 16 18 20 19 30 5 16 -22 20 -20 35 15 10 26 14 29 23 17 17 -22 51 -38 83
-38 l28 1 -44 39 c-24 22 -39 40 -33 40 5 0 9 6 9 13 -1 20 15 77 22 77 4 0
17 -7 29 -16 22 -15 22 -17 5 -30 -14 -12 -11 -12 14 1 18 8 47 15 65 15 18 0
56 9 83 20 l50 19 -45 1 c-67 1 -75 9 -56 55 l16 38 -21 -19 c-12 -10 -30 -37
-41 -59 l-21 -39 -28 34 c-36 43 -37 60 -1 60 l27 0 -25 20 c-14 11 -43 24
-65 29 -22 5 -33 9 -25 10 8 1 21 10 28 22 12 19 11 19 -8 9 -11 -6 -20 -7
-20 -3 0 4 -18 8 -40 7 -22 0 -40 1 -40 2 0 2 14 20 32 41 23 27 25 31 7 16
-14 -13 -31 -23 -37 -23 -7 0 -12 -4 -12 -10 0 -22 -20 -8 -36 25 -20 42 -27
45 -18 8 7 -25 6 -27 -9 -14 -18 15 -23 51 -7 51 6 0 10 7 10 15 0 8 -3 15 -6
15 -8 0 -65 -48 -64 -55 1 -20 -1 -25 -10 -25 -5 0 -10 17 -11 38 0 20 -4 46
-8 57 -7 16 -9 14 -14 -14 -14 -68 -6 -121 18 -121 7 0 18 -7 25 -15 11 -13
10 -22 -4 -52 -14 -29 -21 -34 -41 -31 -15 3 -26 0 -29 -9 -3 -8 -2 -11 3 -8
5 3 12 1 15 -4 3 -5 0 -11 -8 -14 -16 -7 -26 13 -26 51 0 15 -5 45 -12 67
l-11 40 -8 -31 c-5 -16 -21 -41 -35 -55 l-27 -24 7 30 c4 17 9 38 12 48 5 14
1 18 -13 15 -10 -2 -23 3 -29 11 -9 12 -12 9 -18 -12 -5 -21 -13 -27 -32 -27
-19 0 -25 5 -22 18 2 9 10 17 18 17 8 0 15 5 15 12 0 7 8 18 18 25 16 12 14
13 -15 13 -31 0 -33 2 -34 35 -1 26 -1 28 3 8 6 -39 17 -35 47 16 42 71 34 70
-21 -3 -1 -2 -11 6 -22 18 -18 21 -19 21 -24 1 -7 -27 -25 -25 -37 3 -7 18 -3
27 20 48 15 15 36 32 46 38 17 9 17 12 4 21 -12 8 -11 10 6 10 12 0 27 -7 34
-15 11 -13 15 -12 35 9 26 28 49 90 42 109 -3 7 -6 5 -6 -5 -1 -21 -40 -98
-50 -98 -3 0 -22 18 -41 40 -26 30 -45 42 -74 47 -34 5 -38 4 -33 -10 4 -10 1
-17 -6 -17 -11 0 -23 -12 -75 -80 -17 -21 -22 -22 -36 -11 -17 14 -77 18 -96
6 -15 -9 -30 12 -30 43 0 23 0 23 -26 -5 l-25 -28 5 27 c7 33 -9 45 -33 24
-21 -19 -38 -20 -44 -3 -3 6 -6 2 -6 -10 -1 -20 -17 -40 -26 -31 -2 1 -6 15
-10 31 -6 21 -4 27 9 27 21 0 20 9 -1 26 -17 13 -17 15 -1 27 15 12 15 14 -3
25 -18 12 -18 14 -3 37 21 33 14 39 -31 26 l-36 -10 6 31 c8 34 0 33 -42 -5
-22 -20 -23 -20 -23 -1 -1 18 -1 18 -11 2 -14 -25 -38 -22 -49 5 -7 17 -9 18
-9 5 -1 -13 -9 -18 -33 -18 l-32 0 29 30 c31 32 16 43 -21 15 -28 -21 -35 -18
-28 10 4 14 2 25 -4 25 -15 0 -61 -58 -68 -86 -3 -13 -10 -24 -16 -24 -5 0 -6
-4 -3 -10 3 -5 2 -10 -4 -10 -5 0 -12 6 -15 13 -3 8 -9 7 -20 -7 -13 -16 -18
-17 -31 -6 -20 17 -19 30 3 31 12 0 10 3 -7 10 l-24 9 39 35 c36 31 37 34 16
35 -20 0 -21 3 -12 21 l11 20 -40 -20 c-22 -12 -45 -21 -51 -21 -5 0 -10 19
-10 43 l-1 42 -22 -48 -22 -47 -28 27 -27 28 0 -31 c0 -19 -9 -39 -24 -53
l-24 -23 -16 29 -15 28 -1 -42 c0 -24 -3 -43 -7 -43 -3 0 -30 12 -59 26 -74
36 -89 25 -26 -20 51 -37 64 -59 40 -69 -7 -3 -3 -6 10 -6 12 -1 22 -7 22 -14
0 -23 -12 -27 -34 -12 -11 8 -25 15 -30 15 -8 0 -2 -60 10 -97 5 -12 -4 -8
-26 14 -31 30 -32 33 -20 62 14 35 8 61 -15 61 -8 0 -15 5 -15 10 0 6 -6 17
-12 25 -11 11 -17 9 -40 -13 l-28 -26 -26 25 c-18 16 -28 20 -31 12 -3 -10
-10 -10 -25 -2 -19 10 -19 9 2 -19 12 -16 20 -38 18 -48 -3 -17 -5 -16 -26 6
-16 17 -21 19 -17 8 5 -13 2 -18 -9 -18 -9 0 -16 -7 -16 -15 0 -8 -11 -22 -24
-30 -22 -15 -27 -15 -56 0 -18 9 -34 14 -37 11 -3 -3 4 -24 15 -48 12 -23 20
-43 19 -44 -1 0 -16 -4 -34 -7 -26 -5 -36 -2 -51 18 -21 26 -32 23 -32 -8 0
-20 0 -20 -21 -1 -22 19 -22 19 -14 -5 6 -19 4 -23 -8 -18 -14 5 -14 2 -1 -28
l14 -35 -47 6 -48 5 33 -15 c39 -18 40 -30 5 -61 -27 -24 -27 -24 -6 -25 24 0
73 -20 72 -29 0 -3 -32 -26 -70 -51 -71 -45 -73 -60 -5 -41 l36 9 0 -43 c0
-50 19 -72 48 -56 39 21 54 -36 18 -71 -6 -7 -17 -29 -22 -48 l-10 -35 -17 32
c-22 41 -23 60 -3 43 13 -10 13 -7 3 20 -6 17 -13 26 -15 20 -3 -7 -22 5 -43
26 -52 50 -59 38 -13 -22 20 -26 41 -66 46 -88 5 -23 16 -48 24 -57 8 -9 12
-23 8 -34 -5 -13 -4 -16 4 -11 7 4 12 2 12 -4 0 -7 7 -9 15 -6 8 3 22 9 30 12
11 5 13 2 9 -11 -6 -14 -3 -16 17 -10 40 12 69 35 82 63 6 15 16 30 22 34 6 5
5 8 -2 8 -7 0 -13 9 -13 19 0 25 -46 61 -77 61 -19 0 -24 4 -19 16 3 9 6 16 6
17 0 1 25 0 55 -1 61 -4 69 6 30 36 l-25 20 30 12 c16 7 28 15 27 19 -1 3 8
19 20 35 16 19 28 26 40 22 17 -6 17 -5 1 7 -13 10 -16 23 -12 49 4 24 1 43
-11 61 -21 32 -15 43 27 49 22 4 38 -1 52 -13 20 -19 19 -19 -11 -19 -17 0
-37 -7 -44 -16 -12 -15 -10 -16 21 -9 l35 7 -22 -21 c-26 -24 -32 -81 -10 -81
8 0 22 -9 32 -20 18 -20 18 -21 -1 -15 -12 4 -10 1 6 -9 24 -15 23 -15 -35
-16 l-60 -1 35 -19 c43 -23 113 -26 130 -5 15 18 36 20 46 4 4 -8 -1 -9 -17
-5 -23 7 -23 7 -5 -8 17 -14 18 -16 3 -16 -23 0 -21 -9 8 -32 33 -26 32 -35
-10 -42 -19 -4 -49 -13 -67 -21 -31 -14 -32 -15 -10 -21 27 -8 28 -20 3 -34
-30 -16 -39 -12 -46 19 -3 16 -22 53 -41 82 l-35 54 5 -60 c4 -51 9 -64 34
-84 l29 -23 -22 -22 c-22 -22 -45 -130 -30 -144 3 -3 19 -1 35 5 26 10 30 9
36 -11 7 -20 8 -20 14 4 5 21 14 26 50 31 25 4 47 5 49 3 2 -1 -11 -12 -29
-22 -17 -11 -26 -22 -20 -24 8 -2 8 -11 1 -31 -6 -16 -11 -47 -11 -69 l0 -41
18 24 c11 13 31 45 46 72 16 27 35 47 44 46 12 0 13 -2 4 -6 -10 -4 -9 -10 5
-26 18 -20 17 -20 -4 -15 -33 9 -28 -1 7 -13 36 -13 37 -22 5 -47 l-24 -19 22
-11 c18 -9 19 -11 5 -11 -10 -1 -18 -7 -18 -14 0 -7 -14 -35 -31 -63 -20 -31
-24 -43 -12 -31 23 20 35 22 32 5 -4 -22 18 -62 49 -92 38 -36 56 -27 49 25
-5 38 -4 39 25 39 34 0 35 8 -15 -111 -31 -75 -33 -77 -62 -72 -17 2 -38 -2
-48 -9 -18 -13 -17 -16 12 -47 l31 -33 0 -179 c0 -103 -4 -179 -9 -179 -13 0
-95 95 -128 147 -15 22 -41 48 -57 56 -44 22 -156 105 -156 117 0 5 8 14 19
19 10 6 21 17 25 26 4 11 -5 8 -31 -9 -30 -21 -40 -23 -57 -14 -17 9 -18 12
-6 16 8 3 33 16 54 30 l39 24 16 -21 c9 -12 33 -26 54 -32 20 -5 37 -14 37
-20 0 -5 7 -26 15 -47 13 -29 18 -34 25 -22 5 8 10 34 10 57 0 23 4 44 9 48 5
3 -1 17 -13 30 -23 24 -46 33 -46 17 0 -8 -98 -7 -106 1 -3 3 2 17 11 31 15
23 16 29 1 81 -9 30 -19 55 -21 55 -2 0 -11 -24 -20 -54 -13 -44 -13 -58 -3
-81 11 -25 10 -29 -17 -51 -40 -32 -50 -30 -63 9 -10 30 -10 30 -5 -12 l6 -44
-46 32 c-41 28 -47 37 -47 66 0 39 9 44 28 15 9 -15 9 -20 0 -20 -6 0 -2 -10
10 -23 12 -13 20 -27 17 -30 -3 -4 -1 -4 4 0 5 5 11 17 13 28 2 13 13 21 28
23 28 4 50 27 50 54 0 17 -3 16 -27 -6 -19 -18 -30 -22 -39 -15 -14 11 -10 28
18 74 10 17 18 40 18 52 l0 22 -35 -21 c-20 -11 -38 -18 -41 -15 -9 9 58 202
76 221 5 4 25 -4 46 -20 29 -23 36 -25 31 -11 -4 10 -7 27 -7 38 0 10 -9 28
-20 39 -18 18 -18 20 -2 29 15 9 15 10 -5 11 -14 0 -27 10 -35 28 -12 25 -19
27 -71 28 -31 1 -57 -2 -57 -7 0 -17 -17 -8 -60 31 -24 22 -45 38 -48 36 -2
-3 4 -28 13 -56 9 -28 14 -54 11 -57 -8 -9 -37 18 -30 29 3 5 -5 6 -20 2 -25
-6 -26 -4 -26 35 0 48 -7 51 -36 14 l-21 -27 -18 34 -18 35 -12 -40 c-10 -37
-12 -39 -23 -20 -11 17 -12 13 -7 -28 5 -38 3 -48 -10 -53 -8 -4 -22 -1 -30 6
-22 18 -26 9 -11 -20 11 -22 10 -31 -11 -72 -13 -27 -27 -48 -31 -48 -5 0 -18
18 -30 39 l-22 40 19 50 c15 41 16 51 5 51 -10 0 -14 12 -14 39 0 22 -4 42 -9
45 -9 6 -61 -48 -61 -64 0 -4 -15 -10 -32 -14 -25 -5 -36 -2 -45 11 -7 9 -13
11 -13 5 0 -7 -19 1 -42 18 -22 16 -50 30 -61 30 -17 0 -15 -5 13 -37 18 -21
44 -45 57 -53 21 -13 25 -13 33 0 7 12 11 8 16 -18 5 -23 9 -29 15 -21 6 10
11 5 19 -15 6 -16 8 -31 6 -34 -3 -3 -8 1 -11 9 -4 10 -18 13 -49 11 -39 -3
-46 -1 -62 23 -18 28 -62 55 -90 55 -13 0 -14 -3 -4 -15 16 -19 4 -52 -23 -59
-12 -3 -35 -17 -52 -31 l-30 -26 55 7 c51 6 54 5 40 -11 -8 -10 -15 -23 -16
-29 0 -6 -2 -17 -2 -24 -3 -21 -92 59 -108 97 -8 18 -14 35 -14 37 0 1 19 4
42 6 26 2 43 8 45 18 4 13 3 13 -6 0 -8 -12 -11 -12 -11 -2 0 24 -40 71 -87
104 -44 29 -49 25 -15 -14 14 -16 13 -18 -6 -18 -11 0 -29 -3 -39 -6 -15 -5
-15 -4 -3 5 12 8 12 11 2 11 -10 0 -8 9 7 36 26 43 26 44 2 44 -15 0 -21 10
-26 41 -7 40 -7 40 -32 24 -19 -13 -27 -14 -39 -4 -9 7 -14 8 -14 1 0 -7 -10
-5 -27 4 -46 23 -49 18 -26 -43 3 -8 -3 -13 -17 -13 -21 0 -22 -1 -6 -25 15
-23 15 -25 -1 -25 -15 0 -14 -3 5 -16 28 -19 28 -30 0 -39 -22 -7 -21 -8 7
-14 l30 -6 -32 -14 c-34 -14 -44 -31 -18 -31 15 0 51 -58 41 -67 -3 -3 -21 4
-41 15 -41 25 -43 21 -10 -35 l24 -43 -50 0 c-53 0 -59 -5 -31 -26 16 -12 16
-13 -4 -14 -25 0 -67 -29 -44 -30 50 -3 82 -9 87 -14 4 -4 -24 -4 -61 -1 -77
6 -97 -1 -67 -22 26 -18 27 -30 1 -38 -11 -3 -20 -11 -20 -17 0 -5 7 -8 15 -5
8 4 17 2 20 -3 4 -6 1 -10 -4 -10 -20 0 -11 -19 11 -22 31 -4 33 -23 2 -37
-35 -16 -26 -23 14 -12 25 8 32 7 32 -5 0 -8 -11 -14 -27 -15 -19 -1 -22 -3
-10 -6 14 -4 17 -11 13 -29 -7 -25 -6 -25 23 -9 39 20 44 19 31 -5 -6 -11 -8
-25 -4 -31 3 -6 -2 -19 -12 -30 -13 -15 -14 -18 -3 -14 12 4 14 -1 11 -30 -3
-27 -10 -37 -28 -41 -13 -3 -28 -12 -35 -20 -18 -22 -29 -16 -29 15 0 16 -3
37 -6 45 -5 14 -10 12 -30 -9 -31 -34 -37 -61 -26 -113 11 -47 7 -50 -39 -26
-47 24 -46 9 0 -18 22 -13 41 -25 41 -28 0 -3 -13 -14 -30 -23 -42 -25 -38
-40 8 -30 41 8 61 7 109 -2 31 -7 32 -8 16 -31 -9 -14 -13 -28 -9 -32 4 -4 12
1 17 11 6 9 17 17 24 17 19 0 19 4 -10 -54 -14 -27 -25 -59 -25 -72 0 -18 -9
-24 -50 -34 -57 -14 -60 -28 -11 -45 l33 -11 -33 -27 c-32 -27 -33 -28 -9 -24
14 3 32 7 41 11 13 6 16 -2 15 -58 -1 -62 0 -64 18 -48 39 36 67 99 65 146 -2
24 -5 44 -9 43 -3 -1 -16 8 -29 20 -19 17 -22 28 -16 50 l7 28 13 -25 14 -25
1 28 0 27 40 -20 c21 -11 50 -20 63 -20 23 0 24 -2 19 -52 l-5 -52 28 22 c21
17 30 19 36 10 5 -8 11 -3 19 17 6 15 7 31 3 34 -4 3 -17 16 -28 29 -16 20
-17 25 -5 34 12 8 11 9 -3 4 -10 -3 -28 1 -40 9 -12 8 -36 15 -54 15 -28 0
-33 4 -33 23 0 16 10 27 35 39 35 15 35 15 59 -13 14 -16 30 -29 37 -29 9 0 9
3 0 14 -15 18 -10 77 6 83 7 3 10 9 7 14 -3 5 2 19 12 31 l16 23 -6 -25 c-3
-14 -6 -30 -6 -37 0 -6 -8 -14 -17 -16 -14 -4 -14 -5 3 -6 29 -1 40 -41 17
-58 -16 -12 -15 -13 1 -13 14 0 16 -3 7 -13 -11 -14 -6 -27 10 -27 12 0 79 61
79 71 0 5 -11 7 -24 3 -22 -5 -23 -4 -17 28 l7 33 69 3 c66 3 69 2 50 -13 -20
-16 -20 -16 0 -6 11 5 46 16 78 24 45 12 56 12 47 2 -6 -7 -22 -12 -36 -12
-14 -1 -32 -7 -39 -14 -19 -19 -65 -149 -53 -149 27 0 79 36 101 69 16 25 38
41 63 50 22 7 44 14 50 17 7 3 14 -20 18 -65 8 -78 16 -82 55 -26 28 42 40
127 21 150 -11 13 -9 15 12 15 13 0 46 -7 73 -17 l49 -16 -25 -16 c-37 -24
-93 -85 -81 -89 23 -7 113 41 127 69 13 25 18 27 46 19 18 -5 62 -27 98 -48
83 -49 79 -48 244 -82 82 -17 165 -41 205 -60 117 -55 272 -153 316 -200 38
-41 46 -58 64 -136 39 -167 51 -314 34 -409 -17 -89 29 -357 90 -534 l30 -86
-2 -265 c-1 -145 -2 -265 -3 -266 -6 -5 -247 18 -335 32 -57 8 -106 14 -108
11 -2 -2 52 -17 121 -32 68 -16 122 -31 120 -33 -6 -6 -181 25 -345 61 -137
30 -142 32 -96 37 l49 5 -82 21 -82 21 28 -24 c32 -28 34 -28 -102 13 -98 29
-339 120 -401 152 -22 11 -68 29 -102 41 -66 21 -143 64 -252 139 -36 25 -101
70 -145 100 -148 102 -319 246 -484 409 -91 89 -168 160 -173 157 -20 -13 21
-129 124 -347 39 -81 68 -151 64 -154 -13 -13 -116 29 -188 76 -225 148 -494
501 -745 978 -36 68 -66 123 -68 123 -2 0 5 -33 15 -72 32 -128 32 -128 16
-128 -12 0 -33 23 -93 105 -34 46 -95 151 -149 252 -26 51 -50 91 -52 88 -14
-14 113 -392 193 -575 301 -687 854 -1286 1530 -1655 90 -49 74 -33 -35 35
-174 108 -509 382 -541 442 -6 12 22 -7 62 -43 428 -373 930 -637 1499 -789
80 -21 137 -39 127 -39 -25 -1 -230 44 -338 74 -50 14 -93 24 -95 22 -2 -2 42
-18 98 -35 350 -106 676 -157 1078 -169 234 -8 231 -13 -15 -34 -137 -11 -382
-8 -545 6 -40 3 -33 1 25 -9 86 -15 479 -42 770 -53 169 -6 176 -7 105 -15
-41 -5 -190 -13 -330 -17 l-255 -9 315 3 c333 2 440 12 699 61 73 14 135 23
137 21 7 -6 -221 -57 -369 -82 -333 -56 -657 -60 -962 -13 l-80 13 55 6 c42 4
47 6 18 7 -65 3 -335 52 -476 87 -596 146 -1168 441 -1620 834 -52 45 -97 81
-100 81 -15 -1 201 -200 289 -266 224 -169 438 -288 877 -489 106 -48 191 -90
189 -92 -6 -6 -180 54 -297 102 -590 242 -1096 622 -1504 1128 -483 602 -784
1357 -860 2156 -18 190 -21 605 -5 786 8 101 32 285 54 425 11 74 -14 -22 -44
-165 -90 -429 -113 -902 -64 -1335 9 -85 17 -174 18 -197 0 -24 4 -43 9 -43 4
0 5 -11 2 -24 -3 -14 -1 -28 4 -31 6 -4 8 -10 5 -15 -6 -10 42 -201 85 -339
17 -52 28 -96 26 -98 -12 -12 -103 279 -155 499 -73 302 -113 575 -131 906
-17 302 -39 361 -89 237 -44 -112 -54 -207 -48 -460 7 -245 21 -393 63 -625
142 -790 483 -1498 1006 -2088 368 -415 883 -783 1361 -971 386 -153 811 -256
1232 -301 287 -30 826 -18 1160 25 361 47 674 139 923 271 807 427 1446 1081
1851 1894 214 431 350 871 423 1370 30 211 33 717 5 935 -77 593 -263 1118
-573 1614 -173 278 -356 502 -618 758 -335 329 -671 567 -1107 782 -168 84
-413 191 -436 191 -4 0 56 -31 135 -70z m-1178 -2945 c0 -9 -6 -12 -15 -9 -8
4 -15 10 -15 15 0 5 7 9 15 9 8 0 15 -7 15 -15z m136 -1 c-5 -13 -4 -14 7 -5
11 8 22 8 48 -4 20 -8 26 -14 16 -15 -10 0 -20 -7 -23 -15 -4 -8 -18 -15 -33
-15 -15 0 -37 -8 -51 -17 -21 -15 -23 -15 -17 -1 4 11 -1 18 -14 21 -12 3 -17
11 -13 21 3 9 9 14 13 12 4 -3 20 4 37 15 35 23 38 23 30 3z m-316 -35 c0 -5
-4 -9 -10 -9 -5 0 -10 7 -10 16 0 8 5 12 10 9 6 -3 10 -10 10 -16z m437 5 c-3
-3 -12 -4 -19 -1 -8 3 -5 6 6 6 11 1 17 -2 13 -5z m-315 -26 c-7 -7 -12 -8
-12 -2 0 14 12 26 19 19 2 -3 -1 -11 -7 -17z m284 -35 c-11 -11 -26 10 -26 35
l1 27 15 -28 c9 -16 13 -31 10 -34z m211 -5 c-3 -7 -5 -2 -5 12 0 14 2 19 5
13 2 -7 2 -19 0 -25z m-764 -33 c21 -25 33 -45 27 -45 -5 0 -9 -5 -7 -11 1 -6
-3 -13 -10 -16 -7 -3 -9 3 -6 18 l6 23 -31 -23 c-35 -25 -42 -18 -14 13 18 20
18 21 0 39 -14 13 -18 14 -18 3 0 -8 -13 -18 -28 -24 -23 -8 -31 -6 -40 7 -9
12 -9 9 0 -12 16 -38 3 -45 -26 -14 -29 31 -38 34 -29 10 4 -11 3 -14 -5 -9
-16 10 -15 34 2 52 11 11 16 11 19 1 3 -7 6 -5 6 5 1 15 5 16 26 6 19 -9 29
-8 47 5 34 23 40 21 81 -28z m247 -9 c0 -15 -29 -30 -39 -20 -3 3 3 12 13 20
24 17 26 17 26 0z m35 4 c3 -5 -1 -10 -10 -10 -9 0 -13 5 -10 10 3 6 8 10 10
10 2 0 7 -4 10 -10z m775 -20 c0 -5 -2 -10 -4 -10 -3 0 -8 5 -11 10 -3 6 -1
10 4 10 6 0 11 -4 11 -10z m-580 -50 c-6 -12 -18 -19 -25 -16 -19 7 -27 -20
-9 -34 18 -15 19 -64 2 -57 -7 2 -22 0 -32 -6 -17 -8 -16 -5 5 24 15 22 17 29
6 20 -14 -11 -17 -11 -18 0 0 8 -4 35 -8 61 l-8 47 46 3 c50 3 60 -7 41 -42z
m-290 19 c0 -12 13 -43 29 -69 l30 -48 -33 -4 c-30 -3 -33 -1 -33 22 1 14 -3
46 -7 73 -6 33 -5 47 3 47 6 0 11 -10 11 -21z m173 5 c-4 -11 -8 -12 -13 -4
-4 7 -11 -19 -14 -56 -4 -38 -10 -80 -12 -94 -5 -24 -4 -24 11 4 16 26 18 27
33 12 15 -14 14 -18 -6 -45 -28 -38 -29 -51 -1 -20 l20 24 -7 -25 c-3 -14 -8
-27 -10 -29 -7 -8 -35 10 -42 26 -4 10 -17 19 -29 20 -19 2 -23 -2 -23 -24 l0
-28 -27 27 c-26 27 -27 27 -8 48 18 20 20 20 26 3 4 -10 7 11 7 47 1 44 -2 60
-8 50 -8 -12 -10 -11 -10 5 0 13 16 29 48 47 54 31 74 35 65 12z m-609 0 c22
-9 10 -24 -20 -24 -21 0 -23 2 -12 15 16 17 13 16 32 9z m485 -49 c0 -5 -6 -1
-14 9 -8 11 -15 24 -15 30 0 5 7 1 15 -10 8 -10 14 -23 14 -29z m305 22 c-3
-9 -13 -14 -22 -10 -14 4 -14 3 -3 -5 8 -6 20 -8 28 -5 9 4 13 -5 14 -28 0
-19 3 -28 6 -21 4 10 8 9 19 -5 20 -27 17 -34 -12 -23 -32 13 -37 12 -29 0 3
-5 1 -10 -4 -10 -6 0 -11 8 -11 18 0 10 -13 28 -30 40 -26 20 -28 25 -18 42 7
10 24 21 38 22 32 4 32 4 24 -15z m196 -2 c10 -12 10 -19 2 -27 -9 -9 -12 -7
-12 9 0 16 -5 19 -27 16 -22 -4 -25 -2 -13 6 21 15 35 14 50 -4z m-654 -4 c5
-5 19 -11 30 -13 18 -2 20 -7 13 -26 -8 -22 -9 -22 -41 -6 l-33 16 34 -29 c20
-17 31 -34 27 -41 -11 -18 -66 51 -66 82 0 26 17 34 36 17z m764 -30 c0 -8 -3
-12 -6 -8 -3 3 -20 -7 -38 -23 -48 -46 -67 -36 -50 27 6 22 54 39 54 19 0 -6
5 -3 11 8 9 15 13 16 20 5 5 -8 9 -20 9 -28z m-1117 12 c-11 -31 -15 -34 -29
-22 -11 9 -11 15 -3 25 17 20 40 18 32 -3z m236 8 c8 -5 10 -14 6 -21 -5 -8
-1 -18 9 -26 19 -14 5 -29 -19 -20 -12 4 -13 2 -2 -17 6 -12 18 -29 25 -38 12
-15 9 -17 -28 -21 -44 -4 -60 5 -60 35 0 12 -5 17 -14 14 -8 -3 -20 1 -26 9
-8 9 -9 14 -2 14 6 0 12 -6 15 -12 3 -7 11 2 19 21 10 21 18 29 23 22 4 -7 5
-18 2 -25 -3 -7 -2 -28 3 -47 6 -26 8 -28 9 -10 1 20 3 21 16 11 12 -10 15 -9
15 4 0 9 -7 19 -15 22 -9 4 -15 19 -15 38 0 24 3 28 10 16 8 -11 9 -8 4 13 -6
28 1 33 25 18z m201 -39 c0 -37 -4 -50 -21 -60 -12 -7 -23 -11 -25 -9 -8 7 8
37 16 32 5 -3 6 4 3 15 -7 25 4 70 17 70 6 0 10 -21 10 -48z m-502 -1 l10 -29
-33 14 c-19 8 -37 14 -40 14 -7 0 24 -49 44 -70 13 -13 12 -15 -5 -18 -10 -2
-30 -7 -44 -11 -25 -8 -26 -7 -27 31 -2 36 0 40 19 35 16 -5 18 -3 9 6 -17 17
-14 25 17 41 37 21 39 20 50 -13z m1456 13 c-28 -12 -54 -9 -54 6 0 4 18 7 41
6 41 -1 41 -1 13 -12z m86 -34 c0 -5 -10 -6 -21 -3 -18 5 -20 3 -14 -16 6 -20
4 -21 -22 -15 -38 9 -38 9 -1 31 31 19 58 20 58 3z m-357 -21 c-4 -15 -8 -17
-14 -8 -8 14 -3 29 11 29 4 0 6 -9 3 -21z m110 -4 c-7 -21 -13 -19 -13 6 0 11
4 18 10 14 5 -3 7 -12 3 -20z m-955 -17 c7 -7 12 -19 12 -27 0 -11 -4 -10 -20
4 -21 19 -26 35 -12 35 4 0 13 -5 20 -12z m-104 -57 c-9 -9 -32 22 -27 36 5
12 9 11 19 -8 7 -13 11 -26 8 -28z m1238 25 c12 -18 9 -36 -6 -36 -15 0 -46
36 -46 53 0 11 43 -3 52 -17z m-680 -10 c44 6 71 -18 39 -35 -14 -8 -20 -8
-23 0 -2 6 -19 11 -37 12 -24 1 -38 9 -50 27 l-16 25 26 -17 c16 -10 38 -15
61 -12z m498 16 c0 -5 -8 -17 -19 -26 -17 -16 -19 -16 -25 0 -4 10 -1 21 6 26
17 10 38 10 38 0z m644 -1 c3 -5 -1 -12 -10 -15 -20 -8 -29 -1 -19 13 8 13 22
14 29 2z m-884 -26 c-11 -13 -10 -14 6 -8 10 3 22 11 27 17 5 8 10 7 16 -3 6
-10 -1 -24 -25 -47 -43 -43 -58 -44 -50 -2 6 29 22 58 33 58 3 0 0 -7 -7 -15z
m-107 -42 c6 -31 -5 -45 -18 -23 -4 6 -11 8 -16 5 -10 -7 -2 -53 14 -72 7 -10
3 -13 -16 -13 -14 0 -34 -3 -44 -6 -12 -4 -9 2 10 20 32 29 28 34 -8 10 -25
-16 -25 -16 -25 12 l-1 29 -13 -24 -13 -23 -6 22 c-10 38 24 82 36 48 2 -7 2
-2 0 10 -2 13 0 21 6 18 5 -3 11 1 14 8 6 15 56 26 68 16 4 -3 9 -20 12 -37z
m-1017 27 c21 0 17 -18 -6 -25 -11 -3 -33 -20 -50 -36 -32 -33 -45 -25 -38 23
3 24 44 51 66 43 8 -3 20 -5 28 -5z m504 6 c0 -11 -19 -15 -25 -6 -3 5 1 10 9
10 9 0 16 -2 16 -4z m894 -22 c8 -22 5 -24 -22 -17 -18 4 -20 8 -11 19 15 18
25 18 33 -2z m-104 -49 c-1 -29 -1 -29 -15 -11 -10 13 -15 15 -15 6 0 -9 -6
-8 -22 6 l-23 19 19 -23 c22 -25 28 -99 10 -106 -7 -3 -12 5 -12 17 1 12 -5
36 -12 53 -17 40 -8 64 25 64 17 0 25 5 25 18 0 14 2 15 10 2 5 -8 10 -28 10
-45z m33 49 c-7 -3 -9 -12 -6 -21 4 -11 2 -14 -5 -9 -18 11 -14 36 6 35 9 0
12 -3 5 -5z m728 -32 c-6 -2 -11 -24 -11 -48 0 -49 -7 -54 -33 -24 -19 23 -23
45 -5 34 7 -4 8 -3 4 4 -5 9 -13 9 -26 2 -29 -16 -31 -12 -13 25 11 23 22 34
31 30 7 -3 18 -5 23 -5 6 0 7 -6 4 -12 -3 -7 2 -2 12 11 16 23 18 23 22 6 2
-11 -2 -21 -8 -23z m-976 8 c-3 -5 -11 -10 -16 -10 -6 0 -7 5 -4 10 3 6 11 10
16 10 6 0 7 -4 4 -10z m405 -2 c0 -9 4 -8 10 2 18 27 12 -15 -10 -70 -24 -61
-24 -66 -5 -50 12 10 16 8 25 -14 19 -51 22 -74 10 -95 -15 -29 -30 -17 -30
25 0 19 -4 33 -9 30 -10 -7 -80 34 -81 47 0 4 11 12 25 17 14 5 25 16 25 25 0
8 5 15 12 15 6 0 1 11 -12 24 -13 15 -20 32 -17 40 7 19 57 22 57 4z m-1045
-27 c-8 -25 -51 -39 -68 -22 -15 15 7 31 41 31 12 0 22 5 22 12 0 6 3 9 6 5 3
-3 3 -15 -1 -26z m1159 10 l30 -20 -33 1 c-22 1 -30 5 -27 14 3 7 0 15 -7 18
-7 2 -7 5 -2 5 6 1 23 -8 39 -18z m-228 -21 c0 -29 -23 -33 -29 -4 -3 17 0 24
12 24 10 0 17 -8 17 -20z m-43 -39 c-9 -12 -25 20 -18 36 7 16 9 15 15 -7 4
-14 5 -27 3 -29z m750 2 c7 -9 5 -13 -7 -13 -11 0 -16 8 -15 28 0 15 3 21 6
12 3 -8 10 -21 16 -27z m-983 -4 c0 -6 -4 -7 -10 -4 -5 3 -10 11 -10 16 0 6 5
7 10 4 6 -3 10 -11 10 -16z m310 0 c0 -6 -4 -7 -10 -4 -5 3 -10 11 -10 16 0 6
5 7 10 4 6 -3 10 -11 10 -16z m-616 -24 c-11 -7 -19 -24 -19 -37 0 -14 -7 -24
-17 -26 -10 -2 -18 2 -18 8 0 18 64 93 68 80 2 -6 -4 -17 -14 -25z m826 4 c0
-6 -4 -7 -10 -4 -5 3 -10 11 -10 16 0 6 5 7 10 4 6 -3 10 -11 10 -16z m235 -7
c-7 -8 -45 10 -40 19 4 5 14 3 25 -3 11 -7 17 -14 15 -16z m-1105 -13 c0 -4
-7 -12 -15 -19 -12 -10 -16 -8 -24 11 -5 13 -7 27 -4 31 4 8 43 -13 43 -23z
m346 -22 c-2 -24 -8 -52 -13 -62 -10 -17 -12 -15 -28 14 -16 33 -16 34 11 62
15 16 29 29 31 29 1 0 1 -19 -1 -43z m-466 17 c0 -8 -4 -12 -10 -9 -5 3 -10
-1 -10 -9 0 -10 -6 -13 -15 -10 -12 5 -10 10 8 25 27 23 27 23 27 3z m549 -26
c17 -27 18 -34 6 -36 -18 -4 -19 -14 -3 -30 21 -21 -7 -13 -30 8 -21 20 -22
20 -22 1 0 -10 -7 -22 -16 -25 -14 -6 -16 -1 -10 31 4 21 9 47 11 58 2 11 4
21 4 23 1 1 10 2 20 2 11 0 28 -14 40 -32z m776 22 c-3 -5 -18 -10 -33 -10
-21 0 -24 2 -12 10 20 13 53 13 45 0z m-1445 -15 c0 -8 -4 -15 -10 -15 -5 0
-7 7 -4 15 4 8 8 15 10 15 2 0 4 -7 4 -15z m1330 6 c0 -18 -18 -21 -30 -6 -10
13 -9 15 9 15 11 0 21 -4 21 -9z m304 -7 c4 -10 1 -14 -6 -12 -15 5 -23 28
-10 28 5 0 13 -7 16 -16z m-140 -7 c13 -9 15 -18 8 -36 l-9 -24 -21 21 c-39
39 -21 70 22 39z m-1094 -7 c0 -5 -7 -10 -16 -10 -8 0 -12 5 -9 10 3 6 10 10
16 10 5 0 9 -4 9 -10z m850 -8 c0 -10 5 -23 12 -30 9 -9 8 -12 -7 -12 -31 0
-45 14 -38 38 6 26 33 30 33 4z m-1280 -23 c0 -5 -9 -9 -19 -9 -14 0 -18 5
-14 20 4 16 8 18 19 9 8 -6 14 -15 14 -20z m1383 -2 c-3 -5 -9 -3 -14 4 -4 7
-5 17 -2 22 3 5 9 3 14 -4 4 -7 5 -17 2 -22z m-1858 5 l24 -19 -35 -11 c-38
-11 -49 -3 -39 28 8 25 20 25 50 2z m973 -32 c22 -22 49 -40 61 -40 l21 0 -21
-52 c-11 -29 -29 -62 -40 -73 -19 -19 -19 -19 -19 11 0 50 -33 80 -122 108
-15 4 -12 11 19 46 20 22 42 40 48 40 7 0 31 -18 53 -40z m567 -9 c3 -5 1 -12
-5 -16 -5 -3 -10 1 -10 9 0 18 6 21 15 7z m-228 -33 c-1 -18 -5 -32 -9 -30 -5
1 -14 2 -20 2 -8 0 -6 5 4 10 10 6 14 18 11 30 -3 11 -1 20 5 20 6 0 10 -15 9
-32z m293 18 c0 -7 8 -16 19 -19 11 -3 20 -16 23 -35 l4 -31 -33 30 c-19 16
-38 29 -42 29 -7 0 -8 17 -2 38 3 9 31 -1 31 -12z m-1125 -7 c11 -16 1 -19
-13 -3 -7 8 -8 14 -3 14 5 0 13 -5 16 -11z m1535 -4 c0 -8 -4 -15 -10 -15 -5
0 -10 7 -10 15 0 8 5 15 10 15 6 0 10 -7 10 -15z m-1672 -38 c5 -38 28 -54 50
-33 17 15 32 13 32 -5 0 -8 -33 -13 -137 -23 l-52 -5 -3 32 c-2 22 -8 31 -18
29 -8 -2 -11 0 -7 5 9 9 106 31 122 28 6 -1 11 -13 13 -28z m1028 -9 c9 -28
10 -38 1 -41 -25 -9 -37 6 -37 45 0 49 18 47 36 -4z m424 17 c0 -14 -2 -25 -4
-25 -2 0 -6 11 -8 25 -3 14 -1 25 3 25 5 0 9 -11 9 -25z m-1826 6 c3 -4 -3
-16 -14 -26 -11 -10 -21 -15 -21 -12 -5 23 -5 33 -2 40 6 10 31 9 37 -2z
m1895 -15 c5 -3 11 -19 13 -35 l4 -30 -32 27 c-37 31 -44 53 -14 47 11 -2 24
-6 29 -9z m51 -1 c10 -12 10 -21 1 -42 -14 -31 -16 -29 -24 20 -6 39 2 47 23
22z m-1151 -19 c5 -13 18 -26 28 -30 15 -7 13 -10 -16 -25 -18 -10 -44 -16
-57 -13 -27 5 -40 30 -19 38 8 4 15 12 15 18 0 14 20 36 32 36 5 0 13 -11 17
-24z m315 -12 c7 -27 -9 -58 -25 -48 -5 3 -9 -4 -9 -15 0 -11 -10 -25 -22 -32
-17 -9 -20 -9 -16 2 53 134 60 142 72 93z m683 20 c-3 -3 -12 -4 -19 -1 -8 3
-5 6 6 6 11 1 17 -2 13 -5z m-1557 -53 c0 -12 -9 -20 -24 -23 -23 -5 -23 -4
-7 23 17 29 31 29 31 0z m1456 -8 c12 -4 15 -3 10 5 -11 18 -1 14 19 -8 17
-19 17 -19 -13 -16 -16 3 -43 12 -58 21 l-29 16 27 -5 c14 -3 34 -9 44 -13z
m-1076 -3 c0 -5 -5 -10 -11 -10 -5 0 -7 5 -4 10 3 6 8 10 11 10 2 0 4 -4 4
-10z m535 0 c3 -5 1 -10 -4 -10 -6 0 -11 5 -11 10 0 6 2 10 4 10 3 0 8 -4 11
-10z m655 -31 c0 -17 -20 -29 -20 -11 0 4 -3 18 -7 32 -6 22 -5 24 10 11 9 -7
17 -22 17 -32z m-867 14 c13 -16 57 -106 57 -119 0 -3 -5 -2 -11 2 -9 5 -10
-1 -5 -20 7 -26 6 -27 -21 -13 -15 8 -39 18 -53 22 l-25 7 23 -17 c12 -9 22
-24 22 -33 0 -14 -2 -14 -9 -3 -7 11 -10 9 -16 -8 -4 -14 1 -35 15 -59 l21
-37 -28 31 c-15 18 -43 37 -62 43 -60 20 -79 65 -34 82 31 11 52 37 53 61 0
12 -5 15 -17 11 -11 -4 -7 6 13 30 32 41 53 46 77 20z m574 -2 c7 -11 26 -22
43 -26 20 -4 30 -13 30 -25 0 -10 6 -21 13 -23 8 -4 7 -6 -3 -6 -9 -1 -16 -11
-17 -23 -2 -23 -21 -40 -36 -31 -4 3 -7 15 -6 26 4 33 -11 69 -37 90 -13 10
-24 23 -24 28 0 16 25 10 37 -10z m-2501 0 c-4 -5 -1 -11 6 -13 8 -3 6 -7 -5
-11 -9 -3 -26 2 -39 13 l-23 19 33 1 c18 0 31 -4 28 -9z m2216 -18 c15 -13 26
-15 61 -6 l43 9 -25 -51 c-23 -46 -28 -51 -54 -47 -15 3 -26 9 -24 16 17 44
19 58 7 51 -9 -6 -11 -4 -5 5 6 10 1 12 -24 7 -29 -6 -31 -5 -21 13 13 24 18
25 42 3z m-622 -8 c0 -8 -2 -15 -4 -15 -2 0 -6 7 -10 15 -3 8 -1 15 4 15 6 0
10 -7 10 -15z m-135 -5 c3 -5 2 -10 -4 -10 -5 0 -13 5 -16 10 -3 6 -2 10 4 10
5 0 13 -4 16 -10z m890 -36 c-23 -36 -30 -23 -9 18 10 18 19 27 22 20 2 -7 -4
-24 -13 -38z m-1945 5 c0 -6 -4 -7 -10 -4 -5 3 -10 11 -10 16 0 6 5 7 10 4 6
-3 10 -11 10 -16z m-560 4 c0 -5 -4 -13 -8 -20 -6 -9 -11 -7 -20 7 -11 17 -10
20 8 20 11 0 20 -3 20 -7z m2815 -14 c-4 -5 0 -9 7 -9 7 0 28 -9 47 -21 l34
-20 -37 -33 c-24 -22 -36 -43 -36 -60 0 -16 -6 -26 -15 -26 -11 0 -13 7 -9 29
4 20 -2 47 -19 84 l-25 55 22 10 c23 10 40 6 31 -9z m-882 -13 c-15 -21 -19
-22 -24 -8 -4 11 0 20 10 24 29 12 32 8 14 -16z m-1043 -32 c0 -7 6 -11 14 -8
11 4 13 0 9 -15 -10 -37 -22 -33 -48 16 -14 26 -22 37 -18 23 4 -14 8 -38 8
-55 0 -16 4 -36 9 -43 12 -19 5 -22 -36 -16 -26 5 -35 11 -32 23 1 9 6 33 9
54 4 24 10 35 17 31 7 -5 8 -2 3 6 -4 7 -2 16 5 20 16 10 60 -17 60 -36z
m1740 27 c0 -9 -22 -31 -31 -31 -3 0 -4 11 -2 24 3 16 10 23 19 19 8 -3 14 -8
14 -12z m-805 -31 c-23 -26 -28 -20 -15 15 8 21 14 25 22 17 9 -9 7 -17 -7
-32z m-1671 0 c35 0 41 -16 12 -35 -15 -10 -23 -22 -19 -31 4 -10 0 -12 -11
-8 -9 3 -16 1 -16 -6 0 -6 -4 -8 -10 -5 -5 3 -15 -5 -21 -19 l-12 -25 -27 19
c-16 11 -36 20 -46 20 -16 0 -16 -1 1 -20 10 -11 15 -23 11 -27 -11 -11 -38
10 -57 43 l-16 29 34 0 c18 0 33 -3 33 -7 0 -12 57 45 69 70 10 18 15 20 31
12 10 -5 30 -10 44 -10z m2056 -5 c-27 -28 -40 -32 -40 -10 0 9 6 12 15 9 8
-4 17 1 21 10 3 9 11 16 17 16 6 0 0 -11 -13 -25z m450 15 c12 -8 9 -10 -13
-10 -16 0 -26 4 -22 10 8 12 16 12 35 0z m-934 -46 c4 -20 2 -46 -5 -60 -6
-14 -11 -35 -11 -47 0 -14 -3 -18 -8 -10 -4 6 -20 16 -34 22 -25 10 -26 12
-16 42 8 24 8 33 -3 40 -16 9 -14 11 26 32 41 22 43 22 51 -19z m149 16 c3 -6
-1 -7 -9 -4 -18 7 -21 14 -7 14 6 0 13 -4 16 -10z m645 -5 c7 -8 19 -15 27
-15 9 0 -2 -20 -28 -51 -41 -48 -44 -49 -51 -28 -10 27 -32 12 -26 -17 2 -12
-5 -24 -21 -32 -31 -16 -37 -9 -22 24 6 15 9 29 7 32 -7 6 32 62 58 84 26 22
40 22 56 3z m-271 -16 c-16 -10 -23 -4 -14 10 3 6 11 8 17 5 6 -4 5 -9 -3 -15z
m-2019 -15 c0 -16 -16 -19 -25 -4 -8 13 4 32 16 25 5 -4 9 -13 9 -21z m815 -3
c-3 -12 -10 -21 -15 -21 -5 0 -4 11 2 25 13 29 23 26 13 -4z m35 20 c0 -6 -4
-13 -10 -16 -5 -3 -10 1 -10 9 0 9 5 16 10 16 6 0 10 -4 10 -9z m1868 -3 c14
-14 16 -64 2 -73 -13 -8 -61 5 -54 16 3 5 0 9 -6 9 -6 0 -1 14 12 30 24 33 29
35 46 18z m-2343 -8 c3 -5 1 -10 -4 -10 -6 0 -11 5 -11 10 0 6 2 10 4 10 3 0
8 -4 11 -10z m360 0 c3 -5 -1 -10 -9 -10 -9 0 -16 5 -16 10 0 6 4 10 9 10 6 0
13 -4 16 -10z m943 -35 c20 -41 20 -45 4 -46 -17 -1 -16 -1 27 -15 11 -3 9
-10 -9 -29 l-23 -25 31 0 c30 0 35 -5 69 -74 l37 -74 -38 -46 c-43 -53 -124
-122 -132 -113 -16 16 -82 310 -86 377 l-3 75 35 6 c63 11 65 10 88 -36z
m-1363 25 c3 -5 2 -10 -4 -10 -5 0 -13 5 -16 10 -3 6 -2 10 4 10 5 0 13 -4 16
-10z m2079 -22 c14 -18 24 -33 23 -34 -1 -1 -33 -4 -70 -8 l-68 -7 12 23 c34
66 65 74 103 26z m-2349 2 c3 -5 2 -10 -4 -10 -5 0 -13 5 -16 10 -3 6 -2 10 4
10 5 0 13 -4 16 -10z m2484 -20 c11 -24 11 -24 -3 -6 -9 11 -16 24 -16 30 0
12 5 7 19 -24z m249 10 c-14 -22 -24 -19 -15 5 4 8 11 15 17 15 6 0 6 -7 -2
-20z m-2739 -30 c11 0 21 -4 21 -9 0 -10 48 -2 56 10 7 12 24 11 24 -1 0 -5
-8 -10 -17 -10 -15 0 -14 -3 5 -18 21 -16 22 -20 8 -31 -9 -8 -31 -17 -49 -21
-20 -5 -24 -8 -11 -9 12 -1 26 -12 33 -27 17 -37 -9 -64 -59 -64 -47 0 -57 20
-24 51 45 43 21 69 -65 69 l-49 0 10 38 c16 59 25 65 63 42 18 -11 42 -20 54
-20z m671 -31 c0 -3 -6 -12 -14 -18 -11 -9 -16 -5 -26 21 -10 25 -14 29 -17
15 -3 -9 -9 -15 -14 -12 -5 4 -4 14 3 24 11 18 13 18 40 -2 15 -11 28 -24 28
-28z m1403 45 c3 -4 -4 -19 -15 -35 l-22 -29 -28 26 c-15 15 -25 31 -22 36 6
9 78 11 87 2z m387 -4 c11 -7 2 -9 -30 -9 -37 1 -41 2 -20 9 34 11 33 11 50 0z
m-517 -12 c6 -18 -11 -48 -27 -48 -12 0 -12 6 -3 30 12 32 22 38 30 18z
m-1182 -21 c-10 -9 -11 -8 -5 6 3 10 9 15 12 12 3 -3 0 -11 -7 -18z m1996 -2
c-4 -8 -14 -15 -23 -15 -16 0 -16 2 1 20 20 22 31 20 22 -5z m-377 1 c0 -10
-9 -12 -40 -6 -58 11 -61 20 -7 20 33 0 47 -4 47 -14z m130 2 c0 -10 3 -9 9 1
15 23 31 2 31 -39 0 -26 8 -48 25 -68 l24 -29 -82 -125 c-45 -69 -96 -148
-114 -176 -18 -28 -64 -76 -103 -107 -39 -31 -130 -113 -202 -181 -72 -68
-134 -124 -137 -124 -11 0 -41 268 -41 360 0 102 24 194 77 299 26 51 46 76
63 82 14 5 33 14 42 19 24 14 28 13 28 -9 0 -10 6 -24 14 -30 8 -7 14 -26 14
-44 0 -40 23 -127 29 -109 3 6 13 12 22 12 14 0 17 -6 13 -31 -3 -21 -1 -30 6
-25 6 4 17 -5 25 -20 l14 -27 7 36 c8 40 21 54 39 39 7 -5 21 -12 32 -16 19
-7 19 -7 -1 16 -28 32 -25 47 16 68 l35 18 -28 7 c-15 4 -37 5 -50 1 -16 -4
-27 1 -39 17 -9 12 -20 19 -24 15 -3 -4 1 -14 10 -23 19 -19 20 -31 5 -41 -17
-10 -48 36 -47 68 1 22 6 28 25 28 12 0 23 -6 23 -12 0 -7 10 2 21 20 12 17
24 32 27 32 3 0 27 -18 53 -40 26 -22 51 -40 54 -40 11 0 -5 54 -22 73 -14 15
-14 17 -1 17 8 0 26 -8 39 -18 38 -29 59 -34 59 -14 -1 30 -37 99 -61 116 -23
16 -23 16 24 16 31 0 47 -4 47 -12z m-1700 -8 c0 -5 -4 -10 -10 -10 -5 0 -10
5 -10 10 0 6 5 10 10 10 6 0 10 -4 10 -10z m1002 -48 l-27 -24 28 6 c16 4 27
2 27 -4 0 -13 -29 -70 -35 -70 -3 0 -13 17 -24 39 l-20 38 30 22 c16 12 29 29
30 39 0 14 2 14 9 -3 6 -15 2 -25 -18 -43z m191 44 c3 -8 3 -16 0 -19 -9 -10
-33 5 -33 19 0 18 26 18 33 0z m217 -36 c-17 -32 -11 -35 18 -7 20 19 31 24
42 17 8 -5 11 -10 6 -10 -5 0 -2 -7 5 -17 13 -15 11 -16 -14 -9 -19 4 -26 3
-22 -4 3 -5 -2 -9 -12 -8 -10 0 -34 0 -53 -1 -29 -1 -32 -3 -17 -12 9 -5 17
-17 17 -26 0 -14 -4 -13 -23 6 -31 28 -29 68 3 85 35 17 63 9 50 -14z m436 19
c3 -6 2 -15 -3 -20 -12 -12 -50 0 -57 17 -7 17 49 20 60 3z m2621 -36 c-3 -10
-5 -2 -5 17 0 19 2 27 5 18 2 -10 2 -26 0 -35z m-5332 -1 c12 -8 -30 -20 -72
-21 -32 -1 -32 -1 -15 19 13 16 24 19 47 14 16 -3 34 -9 40 -12z m195 0 c0
-15 -37 -30 -51 -21 -12 8 -12 10 1 19 18 12 50 13 50 2z m477 -14 c-3 -8 -6
-5 -6 6 -1 11 2 17 5 13 3 -3 4 -12 1 -19z m877 -25 c3 -27 16 -91 29 -143 26
-111 26 -182 -1 -267 -11 -34 -30 -116 -43 -182 -13 -67 -27 -121 -31 -121 -4
0 -17 26 -29 58 -21 53 -23 74 -23 277 l-1 220 40 103 c22 56 43 102 47 102 4
0 9 -21 12 -47z m414 14 c2 -18 -2 -29 -13 -33 -23 -9 -28 0 -20 36 8 37 29
35 33 -3z m-1614 5 c5 -3 2 -10 -6 -16 -8 -6 -15 -15 -16 -21 -1 -5 -9 -12
-18 -14 -13 -2 -16 2 -11 20 4 13 7 29 7 36 0 11 18 9 44 -5z m403 -6 c35 26
36 27 50 9 20 -29 11 -40 -38 -43 -51 -3 -64 4 -73 38 -6 23 -6 23 9 -3 l16
-28 36 27z m135 -8 c-7 -7 -12 -8 -12 -2 0 6 3 14 7 17 3 4 9 5 12 2 2 -3 -1
-11 -7 -17z m1158 7 c0 -8 -7 -15 -15 -15 -16 0 -20 12 -8 23 11 12 23 8 23
-8z m-2066 -9 c-3 -8 -12 -12 -21 -9 -12 5 -12 7 -1 14 20 13 28 11 22 -5z
m520 8 c25 -9 19 -24 -9 -24 -16 0 -25 6 -25 15 0 16 9 19 34 9z m-758 -35 c3
-6 -1 -18 -10 -27 -15 -15 -19 -11 -15 14 0 4 -5 11 -13 15 -9 6 -7 9 9 9 12
0 25 -5 29 -11z m3778 -4 c-5 -11 3 -17 26 -22 27 -5 30 -7 15 -16 -12 -6 -20
-6 -25 3 -5 9 -19 11 -39 7 -32 -7 -34 -2 -8 31 14 17 38 15 31 -3z m1803 -32
c-3 -10 -5 -2 -5 17 0 19 2 27 5 18 2 -10 2 -26 0 -35z m-5037 22 c0 -1 -11
-5 -25 -7 -20 -4 -23 -2 -14 8 8 10 39 10 39 -1z m1685 -5 c-36 -24 -45 -25
-45 -6 0 13 10 17 65 24 6 1 -3 -7 -20 -18z m-1417 4 c30 -9 28 -19 -10 -35
-27 -11 -29 -14 -12 -20 10 -4 34 -8 53 -8 30 -1 33 -3 29 -26 -6 -30 2 -31
45 -8 30 16 30 18 10 21 -13 2 -23 8 -23 13 0 12 15 12 38 0 9 -5 25 -12 35
-15 27 -8 21 -18 -39 -61 l-56 -40 32 -3 c49 -5 80 6 110 38 l27 29 34 -22 34
-21 -30 -6 -30 -7 36 -16 c38 -17 69 -55 69 -84 0 -19 -57 -43 -101 -43 -14 0
-19 -5 -16 -14 3 -8 1 -17 -6 -20 -8 -3 -6 -5 3 -5 8 -1 29 6 45 15 77 41 79
41 126 -49 23 -45 49 -90 57 -99 20 -24 14 -24 -133 8 -140 29 -214 50 -270
74 -22 10 -55 23 -73 30 -26 10 -30 15 -21 27 9 10 15 11 23 3 16 -16 26 -12
26 13 0 12 -12 34 -27 48 -16 14 -35 34 -43 45 -9 10 -26 26 -39 34 l-22 15
25 55 c28 59 32 90 16 121 -10 17 -7 19 22 19 18 0 43 -3 56 -6z m-238 -24 c0
-5 -2 -10 -4 -10 -3 0 -8 5 -11 10 -3 6 -1 10 4 10 6 0 11 -4 11 -10z m-270
-15 c-7 -8 -16 -15 -21 -15 -5 0 -9 7 -9 15 0 9 9 15 21 15 18 0 19 -2 9 -15z
m224 5 c-21 -8 -40 -49 -46 -100 l-3 -25 -21 30 c-40 56 -39 71 3 88 21 9 49
16 63 16 24 0 24 -1 4 -9z m1736 3 c-1 -19 -18 -33 -33 -27 -12 4 -18 -1 -23
-20 -3 -14 -10 -26 -15 -26 -12 0 -11 -37 1 -45 6 -3 10 -12 10 -18 -1 -23
-30 27 -30 51 0 33 16 59 48 76 31 17 42 19 42 9z m-2210 -43 c5 0 16 10 24
22 16 22 16 21 16 -19 l0 -42 25 24 c31 32 65 33 65 3 0 -30 -10 -44 -37 -52
-12 -4 -36 -25 -53 -47 l-32 -39 42 0 c27 0 39 -4 34 -11 -4 -7 1 -7 16 1 26
14 38 6 21 -14 -7 -8 -15 -26 -19 -40 -7 -25 -8 -25 -40 -9 -18 9 -31 18 -29
20 9 9 -51 61 -74 65 -23 3 -24 7 -27 75 -3 70 -2 72 25 87 26 13 28 13 31 -5
2 -10 7 -19 12 -19z m539 23 c-12 -15 -12 -16 4 -10 14 5 17 1 16 -26 0 -28
-2 -30 -12 -14 -10 15 -14 11 -27 -34 -9 -29 -21 -54 -28 -57 -18 -6 -15 24 8
68 11 22 20 48 20 58 0 21 8 32 23 32 5 0 3 -8 -4 -17z m3175 -18 c4 -21 13
-35 21 -35 8 0 15 -7 15 -15 0 -21 -17 -19 -47 5 -14 11 -36 20 -49 20 -30 0
-31 24 -2 44 37 26 55 20 62 -19z m-2664 5 c0 -23 -13 -26 -29 -6 -9 11 -9 15
1 19 23 10 28 7 28 -13z m-781 -26 c-10 -12 -8 -13 7 -8 18 5 18 5 0 -10 -18
-14 -21 -14 -40 2 -21 17 -21 17 -3 -4 16 -19 14 -34 -4 -34 -9 0 -18 46 -10
58 8 13 33 20 49 14 10 -3 10 -8 1 -18z m5248 -6 c-3 -7 -5 -2 -5 12 0 14 2
19 5 13 2 -7 2 -19 0 -25z m-5312 -28 c12 -24 12 -30 1 -39 -17 -14 -21 -8
-30 42 -8 45 5 43 29 -3z m1395 10 c0 -5 -4 -10 -10 -10 -5 0 -10 5 -10 10 0
6 5 10 10 10 6 0 10 -4 10 -10z m473 -118 c6 -109 -5 -293 -24 -407 -6 -33
-23 -88 -39 -122 -29 -60 -29 -62 -15 -110 30 -95 37 -198 20 -266 -9 -34 -21
-136 -26 -227 -10 -182 -39 -374 -54 -358 -12 11 -36 136 -50 255 -8 72 -20
144 -26 159 -5 16 -16 78 -24 139 -7 61 -25 156 -39 210 -14 55 -26 120 -26
145 1 68 85 470 108 517 12 22 49 64 84 93 35 29 69 61 76 72 7 10 17 16 21
14 4 -3 11 -54 14 -114z m1510 97 c5 -18 2 -20 -20 -15 -18 5 -23 4 -17 -6 4
-7 4 -10 -1 -6 -4 4 -14 3 -22 -3 -16 -14 -17 0 0 22 11 14 31 26 48 28 4 1 9
-8 12 -20z m-3268 -25 l16 -25 -25 16 c-14 10 -23 21 -20 26 8 13 10 12 29
-17z m291 -1 c10 -46 13 -54 22 -49 5 3 17 -21 26 -52 10 -31 23 -63 29 -70
16 -20 6 -21 -48 -5 -27 8 -62 17 -77 20 -34 7 -36 20 -4 33 20 7 51 61 42 72
-2 1 -6 20 -10 41 -8 43 10 52 20 10z m4901 5 c-3 -8 -6 -5 -6 6 -1 11 2 17 5
13 3 -3 4 -12 1 -19z m-5253 -20 c-4 -30 -3 -31 6 -9 10 22 11 22 33 7 12 -9
41 -26 64 -38 23 -12 47 -32 54 -45 7 -14 26 -31 41 -39 15 -8 28 -17 28 -20
0 -2 -9 0 -21 6 -16 9 -28 7 -62 -13 -23 -13 -58 -27 -77 -30 -19 -3 -29 -3
-22 0 6 2 12 19 12 38 0 18 7 38 15 45 8 7 15 23 15 36 0 29 -40 42 -77 25
-43 -20 -71 20 -37 53 24 25 34 19 28 -16z m3660 13 c3 -5 -1 -14 -9 -21 -13
-10 -15 -9 -15 9 0 21 14 28 24 12z m-4005 -19 c8 -16 4 -21 -24 -35 l-33 -16
21 34 c12 19 23 34 24 35 1 0 7 -8 12 -18z m479 -21 c-2 -5 -14 -4 -27 0 -23
9 -23 10 -5 23 16 12 20 12 27 0 5 -8 7 -19 5 -23z m3488 28 c3 -6 2 -15 -4
-21 -6 -6 -11 -2 -15 11 -5 22 7 29 19 10z m-513 -30 c-35 -7 -39 -4 -24 15
10 12 16 13 32 3 19 -11 18 -12 -8 -18z m237 -10 c-7 -11 -9 -27 -6 -35 6 -15
1 -16 -27 -5 -17 6 -17 8 3 34 25 32 46 36 30 6z m210 -9 c0 -5 -4 -10 -10
-10 -5 0 -10 5 -10 10 0 6 5 10 10 10 6 0 10 -4 10 -10z m-2590 -36 c42 -28
110 -96 158 -159 26 -33 75 -93 109 -134 35 -41 63 -78 63 -82 0 -7 -112 44
-205 93 -48 26 -90 76 -148 180 -49 87 -54 99 -39 108 24 13 34 12 62 -6z
m4250 -113 c-10 -80 -81 -327 -129 -451 -83 -215 -373 -694 -583 -964 -118
-152 -252 -298 -357 -389 -93 -82 -217 -177 -231 -177 -20 0 -1 36 44 83 28
30 42 43 32 30 -11 -12 -17 -25 -15 -28 9 -8 282 259 381 373 357 407 602 834
763 1327 23 72 53 175 66 229 22 94 24 98 30 61 4 -21 3 -64 -1 -94z m-5590
109 c12 -1 11 -3 -3 -11 -13 -8 -22 -7 -34 3 -14 11 -16 11 -11 -2 19 -54 19
-58 -4 -62 -20 -3 -18 -6 19 -26 52 -27 59 -38 33 -52 -16 -9 -25 -8 -36 0 -7
7 -27 10 -43 8 -28 -4 -29 -3 -26 33 2 20 13 55 26 78 19 32 29 40 44 36 11
-2 27 -5 35 -5z m3864 -7 c6 -15 8 -15 16 -3 8 12 10 10 10 -7 0 -26 -18 -31
-27 -7 -3 9 -15 20 -27 24 l-21 9 21 0 c12 1 25 -7 28 -16z m-77 -10 c3 -7 -3
-9 -17 -6 -29 8 -37 25 -9 21 12 -1 24 -8 26 -15z m-3480 -72 c1 -2 9 1 16 8
11 8 21 8 41 -2 14 -8 23 -17 19 -20 -8 -9 -76 -9 -125 -1 -41 7 -42 21 -4 62
l21 23 14 -33 c9 -18 17 -35 18 -37z m3467 49 c14 -5 26 -14 26 -19 0 -13 -34
-24 -38 -11 -2 6 -10 17 -19 25 -17 17 -5 19 31 5z m-1529 -478 c-4 -24 -9
-41 -12 -39 -8 8 -6 70 3 119 l9 43 3 -40 c2 -22 1 -60 -3 -83z m-3846 -521
c12 -17 27 -29 32 -26 5 4 6 -2 2 -11 -4 -12 -3 -15 5 -10 7 4 12 2 12 -6 0
-17 146 -263 230 -388 249 -371 563 -709 927 -998 113 -89 360 -257 466 -316
107 -60 77 -53 -40 10 -549 293 -1018 700 -1371 1191 -29 40 -52 77 -52 83 0
5 -4 10 -10 10 -5 0 -10 7 -10 15 0 8 -4 15 -10 15 -5 0 -10 7 -10 15 0 8 -5
15 -12 15 -6 0 -9 3 -5 6 3 3 -10 30 -29 60 -57 89 -179 331 -230 454 -46 113
-95 248 -93 259 0 3 40 -73 88 -170 48 -97 98 -190 110 -208z m5746 -1148
c-194 -181 -455 -332 -806 -467 -453 -173 -950 -250 -1451 -225 -317 17 -304
24 42 24 262 1 363 4 465 18 445 60 849 182 1235 371 56 27 83 37 66 24 -88
-69 -51 -54 124 50 84 50 299 197 345 236 54 45 42 27 -20 -31z m-2225 -67 c0
-32 -34 -38 -85 -15 -39 17 -40 17 -10 17 17 0 41 5 55 10 36 16 40 14 40 -12z
m-563 -562 c-3 -3 -12 -4 -19 -1 -8 3 -5 6 6 6 11 1 17 -2 13 -5z m-814 -213
c81 -34 220 -87 310 -116 89 -30 158 -54 153 -55 -5 0 -56 7 -114 16 -200 29
-352 92 -602 248 -69 43 -129 83 -135 88 -5 6 46 -19 115 -54 69 -35 191 -92
273 -127z m1010 182 c-7 -2 -19 -2 -25 0 -7 3 -2 5 12 5 14 0 19 -2 13 -5z"/>
<path d="M2499 7313 c-316 -324 -517 -657 -665 -1100 -65 -193 -71 -239 -9
-66 157 442 426 890 721 1202 36 39 64 71 62 71 -3 0 -52 -48 -109 -107z"/>
<path d="M1612 6803 c-145 -217 -210 -368 -237 -548 -4 -28 6 -10 33 60 63
160 115 275 195 430 42 80 74 145 71 145 -2 0 -30 -39 -62 -87z"/>
<path d="M2680 6560 c-6 -11 -8 -20 -6 -20 3 0 10 9 16 20 6 11 8 20 6 20 -3
0 -10 -9 -16 -20z"/>
<path d="M6550 5680 c0 -29 -14 -42 -22 -19 -2 6 -18 17 -35 24 -31 13 -32 13
-38 -15 -5 -21 -11 -27 -23 -24 -15 5 -15 4 1 -6 32 -20 21 -39 -20 -34 l-38
5 37 -21 c21 -11 42 -30 49 -41 7 -15 17 -19 32 -15 11 3 26 2 31 -3 16 -12
88 -27 113 -23 13 2 20 8 17 17 -3 7 5 21 18 30 l23 17 -22 -7 c-34 -10 -28 4
8 19 l31 13 -46 13 c-38 10 -45 16 -41 31 4 11 2 19 -5 19 -7 0 -21 11 -32 25
-26 33 -38 32 -38 -5z"/>
<path d="M1482 5595 c-35 -177 -44 -260 -49 -490 -5 -244 9 -470 38 -600 l8
-40 -4 46 c-30 327 -30 617 0 877 9 74 14 152 12 175 -2 23 -4 38 -5 32z"/>
<path d="M6857 5411 c4 -16 2 -22 -5 -17 -6 3 -1 -16 11 -44 11 -27 25 -50 29
-50 4 0 8 18 8 39 0 28 -7 48 -24 68 -24 27 -25 27 -19 4z"/>
<path d="M3729 5367 c-17 -44 -16 -44 -50 -11 l-31 29 7 -55 c7 -50 6 -53 -9
-41 -16 13 -16 12 -5 -12 7 -15 10 -29 7 -32 -4 -4 -74 17 -130 40 -15 6 -16
3 -7 -30 12 -43 8 -51 -19 -36 -12 6 -29 11 -38 11 -14 0 -12 -6 12 -31 27
-29 27 -31 6 -25 -14 5 -27 2 -37 -8 -14 -14 -14 -17 5 -36 22 -22 69 -26 101
-10 23 13 50 75 42 96 -5 15 -3 14 25 0 23 -12 33 -25 38 -54 4 -20 6 -39 5
-41 -3 -5 21 -21 32 -21 17 0 24 45 11 72 -21 40 -9 58 32 51 38 -6 65 12 90
59 20 39 18 51 -5 38 -27 -14 -26 -15 -40 30 -15 52 -26 57 -42 17z"/>
<path d="M6988 5370 c-55 -36 -64 -55 -43 -86 13 -20 13 -24 1 -24 -8 0 -22
-3 -32 -7 -12 -4 -15 -3 -10 5 4 7 1 12 -8 12 -9 0 -16 -7 -16 -15 0 -11 11
-15 41 -15 33 0 46 -6 73 -35 35 -37 91 -51 80 -20 -5 11 1 15 22 15 16 0 35
4 43 9 11 7 6 13 -19 26 l-33 17 23 18 23 17 -32 6 c-18 4 -30 11 -26 16 3 6
-17 11 -47 13 l-52 3 33 38 c18 20 31 37 29 37 -3 0 -25 -14 -50 -30z"/>
<path d="M6396 5343 c-6 -14 -5 -15 5 -6 7 7 10 15 7 18 -3 3 -9 -2 -12 -12z"/>
<path d="M2250 5311 c-7 -19 -9 -42 -4 -63 7 -31 8 -30 16 26 9 69 6 79 -12
37z"/>
<path d="M6820 5125 c0 -9 15 -22 33 -30 28 -12 32 -12 35 1 2 8 -2 21 -8 29
-17 20 -60 19 -60 0z"/>
<path d="M3737 5117 c-3 -8 0 -20 6 -26 17 -17 3 -23 -27 -11 -42 16 -90 12
-106 -8 -46 -55 -45 -53 -9 -45 l34 6 -18 -27 -18 -27 31 16 c17 9 34 23 37
31 3 7 13 14 22 14 19 0 80 -36 99 -59 12 -14 13 -13 7 9 -29 119 -46 157 -58
127z"/>
<path d="M3837 5063 c-13 -12 -7 -23 13 -23 11 0 20 7 20 15 0 15 -21 21 -33
8z"/>
<path d="M7049 5041 c14 -26 14 -44 0 -35 -7 4 7 -17 30 -45 22 -29 41 -59 41
-67 0 -7 -9 -28 -20 -46 l-20 -33 0 45 c0 58 -20 41 -30 -26 -9 -56 5 -114 26
-114 11 0 14 -7 10 -22 -6 -22 -6 -22 5 -3 8 16 18 20 43 17 43 -5 105 45 102
83 0 14 -1 25 -1 25 0 0 -24 -9 -52 -20 l-53 -20 0 46 c0 39 2 45 14 35 10 -8
16 -9 21 -1 10 16 64 12 82 -6 27 -26 81 -11 122 33 l35 38 -32 3 c-35 4 -39
11 -19 31 10 11 8 11 -10 2 -16 -8 -22 -8 -25 1 -4 10 -11 10 -33 0 -26 -12
-27 -11 -22 8 7 28 -10 35 -25 10 -17 -27 -32 -26 -25 3 4 12 2 28 -2 36 -7
10 -15 2 -33 -34 l-25 -47 -36 50 c-38 53 -89 93 -68 53z"/>
<path d="M4695 4651 c-13 -30 -15 -45 -7 -53 8 -8 14 1 22 31 16 59 8 71 -15
22z"/>
<path d="M7346 4667 c-3 -12 -6 -35 -6 -52 l1 -30 18 22 c12 14 17 32 14 48
-7 34 -19 40 -27 12z"/>
<path d="M4722 4580 c-6 -11 -12 -29 -12 -41 0 -20 4 -21 48 -14 26 4 49 9 52
11 10 10 -26 24 -53 21 -19 -3 -24 0 -17 7 12 12 14 36 2 36 -4 0 -13 -9 -20
-20z"/>
<path d="M7310 4546 c0 -21 4 -27 15 -22 9 3 15 0 15 -9 0 -10 10 -15 30 -15
28 0 29 -2 19 -26 -5 -15 -7 -36 -3 -47 5 -16 -1 -27 -22 -44 l-29 -23 28 0
c25 0 27 -2 16 -21 -6 -12 -9 -34 -7 -50 4 -27 3 -29 -32 -29 -26 0 -43 -7
-59 -24 l-23 -24 25 -17 c14 -9 42 -19 63 -22 22 -3 47 -10 58 -15 13 -7 16
-7 12 1 -4 6 -1 11 6 12 7 0 -5 9 -27 20 l-40 18 32 1 c17 0 34 -4 38 -10 3
-5 12 -7 20 -3 9 3 15 -1 15 -11 0 -9 -4 -16 -9 -16 -9 0 1 -61 18 -103 9 -24
8 -29 -7 -34 -53 -18 -102 -43 -102 -52 0 -11 51 -41 71 -41 6 0 9 7 5 15 -3
9 0 15 10 15 8 0 31 7 52 16 l37 16 -32 9 -32 9 17 30 17 29 25 -24 c34 -33
40 -32 40 10 0 28 3 33 16 28 14 -5 15 -3 4 16 -6 13 -9 25 -6 29 3 3 -1 16
-9 29 -9 13 -12 23 -8 23 5 1 -5 8 -21 16 -36 20 -20 34 39 34 l40 0 -34 22
-33 21 23 18 c13 10 27 19 32 19 4 0 7 4 7 9 0 13 -61 20 -88 10 -23 -9 -70 6
-58 18 3 3 12 0 21 -7 13 -11 15 -7 15 29 0 35 3 41 21 41 l20 0 -20 29 c-15
21 -18 30 -9 33 7 3 -6 16 -30 29 -23 13 -42 27 -42 30 0 3 12 10 28 16 26 11
26 11 -13 12 -23 1 -51 -6 -63 -15 -22 -15 -22 -17 -5 -29 16 -12 15 -13 -10
-8 -15 3 -24 9 -21 14 3 5 -4 9 -15 9 -11 0 -25 8 -30 18 -9 14 -10 13 -11
-12z m85 -307 c11 -16 -2 -22 -32 -14 -26 7 -26 8 -8 15 28 12 33 12 40 -1z
m60 1 c3 -5 1 -10 -4 -10 -6 0 -11 5 -11 10 0 6 2 10 4 10 3 0 8 -4 11 -10z"/>
<path d="M7192 4535 c-11 -23 -10 -25 11 -25 12 0 46 -16 75 -36 30 -20 56
-33 59 -31 2 3 -3 19 -11 35 -10 20 -26 33 -47 37 -29 7 -30 8 -13 26 16 18
16 19 -2 19 -10 0 -26 -4 -34 -10 -9 -5 -17 -5 -21 1 -3 5 -11 -2 -17 -16z"/>
<path d="M7128 4513 c7 -3 16 -2 19 1 4 3 -2 6 -13 5 -11 0 -14 -3 -6 -6z"/>
<path d="M4749 4493 c-10 -2 -19 -13 -22 -24 -3 -13 -15 -19 -34 -20 -25 -2
-26 -2 -4 -6 13 -3 57 3 97 13 60 14 72 20 63 30 -11 13 -64 17 -100 7z"/>
<path d="M4649 4453 c-13 -16 -12 -17 4 -4 16 13 21 21 13 21 -2 0 -10 -8 -17
-17z"/>
<path d="M1482 4430 c0 -14 2 -19 5 -12 2 6 2 18 0 25 -3 6 -5 1 -5 -13z"/>
<path d="M2285 4405 c13 -142 18 -165 31 -165 17 0 18 -6 -12 115 -17 71 -22
86 -19 50z"/>
<path d="M4768 4433 c7 -3 16 -2 19 1 4 3 -2 6 -13 5 -11 0 -14 -3 -6 -6z"/>
<path d="M4814 4396 c-3 -13 1 -36 9 -51 l14 -28 10 29 c11 31 1 74 -16 74 -6
0 -13 -11 -17 -24z"/>
<path d="M7020 4086 c0 -2 8 -10 18 -17 15 -13 16 -12 3 4 -13 16 -21 21 -21
13z"/>
<path d="M7211 4070 c-13 -11 -20 -20 -17 -20 4 0 0 -10 -9 -23 -16 -25 -12
-37 12 -37 9 0 11 5 7 13 -4 6 9 -3 29 -22 35 -33 40 -51 12 -51 -23 0 -45
-42 -45 -85 0 -56 13 -72 30 -40 17 32 22 31 40 -7 23 -48 40 -47 40 1 0 45
10 51 39 22 24 -24 32 -9 18 32 -11 34 -2 61 19 53 9 -3 1 10 -17 29 -18 18
-36 32 -40 29 -14 -8 -59 8 -52 19 3 5 1 7 -4 4 -6 -4 -19 3 -29 14 -17 19
-17 21 -1 48 9 16 17 32 17 35 0 12 -26 5 -49 -14z"/>
<path d="M7025 3960 c-13 -14 -16 -28 -11 -54 9 -47 22 -53 41 -17 19 37 19
65 2 80 -11 8 -18 6 -32 -9z"/>
<path d="M7137 3973 c-4 -3 -7 -11 -7 -17 0 -6 5 -5 12 2 6 6 9 14 7 17 -3 3
-9 2 -12 -2z"/>
<path d="M7150 3921 c0 -5 7 -12 16 -15 14 -5 15 -4 4 9 -14 17 -20 19 -20 6z"/>
<path d="M2664 3450 c43 -141 45 -145 155 -247 75 -70 94 -84 64 -48 -34 41
-153 205 -211 291 -7 11 -11 12 -8 4z"/>
<path d="M4648 2093 c7 -3 16 -2 19 1 4 3 -2 6 -13 5 -11 0 -14 -3 -6 -6z"/>
<path d="M4518 1333 c7 -3 16 -2 19 1 4 3 -2 6 -13 5 -11 0 -14 -3 -6 -6z"/>
<path d="M4578 1323 c6 -2 18 -2 25 0 6 3 1 5 -13 5 -14 0 -19 -2 -12 -5z"/>
</g>
</svg>
